HIERARCHY
ROOT Hips
{
	OFFSET 0.000000 0.000000 0.000000
	CHANNELS 6 Xposition Yposition Zposition Zrotation Yrotation Xrotation 
	JOINT LeftUpLeg_virtual
	{
		OFFSET 0.000000 0.000000 0.000000
		CHANNELS 3 Zrotation Yrotation Xrotation
		JOINT LeftUpLeg
		{
			OFFSET 10.205400 -3.823500 0.155100
			CHANNELS 3 Zrotation Yrotation Xrotation
			JOINT LeftLeg
			{
				OFFSET 0.708757 -12.982077 0.567790
				CHANNELS 3 Zrotation Yrotation Xrotation
				JOINT LeftFoot
				{
					OFFSET -0.708756 -10.717838 -2.184338
					CHANNELS 3 Zrotation Yrotation Xrotation
					JOINT LeftToeBase
					{
						OFFSET 0.108149 -7.191104 7.560241
						CHANNELS 3 Zrotation Yrotation Xrotation
						End Site
						{
							OFFSET 0.000000 0.000000 0.000000
						}
					}
				}
			}
		}
	}
	JOINT RightUpLeg_virtual
	{
		OFFSET 0.000000 0.000000 0.000000
		CHANNELS 3 Zrotation Yrotation Xrotation
		JOINT RightUpLeg
		{
			OFFSET -10.205400 -3.823500 0.005500
			CHANNELS 3 Zrotation Yrotation Xrotation
			JOINT RightLeg
			{
				OFFSET -0.708756 -12.982134 0.610632
				CHANNELS 3 Zrotation Yrotation Xrotation
				JOINT RightFoot
				{
					OFFSET 0.708754 -10.717769 -1.945823
					CHANNELS 3 Zrotation Yrotation Xrotation
					JOINT RightToeBase
					{
						OFFSET -0.108140 -7.191069 7.372968
						CHANNELS 3 Zrotation Yrotation Xrotation
						End Site
						{
							OFFSET 0.000000 0.000000 0.000000
						}
					}
				}
			}
		}
	}
	JOINT Spine_virtual
	{
		OFFSET 0.000000 0.000000 0.000000
		CHANNELS 3 Zrotation Yrotation Xrotation
		JOINT Spine
		{
			OFFSET 0.000000 6.876099 0.125700
			CHANNELS 3 Zrotation Yrotation Xrotation
			JOINT Spine1
			{
				OFFSET 0.000000 8.022060 0.146608
				CHANNELS 3 Zrotation Yrotation Xrotation
				JOINT Spine2
				{
					OFFSET 0.000000 9.168068 0.167552
					CHANNELS 3 Zrotation Yrotation Xrotation
					JOINT Neck_virtual
					{
						OFFSET 0.000000 0.000000 0.000000
						CHANNELS 3 Zrotation Yrotation Xrotation
						JOINT Neck
						{
							OFFSET 0.000000 10.314075 0.188496
							CHANNELS 3 Zrotation Yrotation Xrotation
							JOINT Head
							{
								OFFSET 0.000000 7.643700 -2.377400
								CHANNELS 3 Zrotation Yrotation Xrotation
								End Site
								{
									OFFSET 0.000000 0.000000 0.000000
								}
							}
						}
					}
					JOINT LeftShoulder_virtual
					{
						OFFSET 0.000000 0.000000 0.000000
						CHANNELS 3 Zrotation Yrotation Xrotation
						JOINT LeftShoulder
						{
							OFFSET 4.392200 8.824978 0.174984
							CHANNELS 3 Zrotation Yrotation Xrotation
							JOINT LeftArm
							{
								OFFSET 8.771219 -2.981674 -0.026999
								CHANNELS 3 Zrotation Yrotation Xrotation
								JOINT LeftForeArm
								{
									OFFSET 8.512804 0.000000 -0.000000
									CHANNELS 3 Zrotation Yrotation Xrotation
									JOINT LeftHand
									{
										OFFSET 18.484802 0.000000 -0.000000
										CHANNELS 3 Zrotation Yrotation Xrotation
										End Site
										{
											OFFSET 0.000000 0.000000 0.000000
										}
									}
								}
							}
						}
					}
					JOINT RightShoulder_virtual
					{
						OFFSET 0.000000 0.000000 0.000000
						CHANNELS 3 Zrotation Yrotation Xrotation
						JOINT RightShoulder
						{
							OFFSET -4.392200 8.824993 0.141379
							CHANNELS 3 Zrotation Yrotation Xrotation
							JOINT RightArm
							{
								OFFSET -8.771282 -2.981682 -0.094208
								CHANNELS 3 Zrotation Yrotation Xrotation
								JOINT RightForeArm
								{
									OFFSET -8.494598 0.000000 0.000000
									CHANNELS 3 Zrotation Yrotation Xrotation
									JOINT RightHand
									{
										OFFSET -18.483803 0.000000 0.000001
										CHANNELS 3 Zrotation Yrotation Xrotation
										End Site
										{
											OFFSET 0.000000 0.000000 0.000000
										}
									}
								}
							}
						}
					}
				}
			}
		}
	}
}
MOTION
Frames: 8
Frame Time: 0.033333
-1.379217 36.203148 5.769644 179.981864 -2.113493 179.531399 -3.960614 -0.773484 13.129095 -1.368585 -7.971780 -14.048453 7.115047 7.529931 16.011358 5.441738 1.288143 6.078579 0.000000 0.000000 0.000000 0.327258 -0.153392 13.532940 -3.489179 -0.565750 -7.006076 -8.435998 -3.706441 14.274755 5.688092 3.767891 9.657367 0.000000 0.000000 0.000000 -0.893450 1.654114 0.683493 -1.885026 0.492032 -12.460327 -1.367232 -3.218803 5.692451 0.032657 -0.037351 -0.068088 -1.892006 -0.877040 7.975524 0.560397 2.630441 10.539965 0.000000 0.000000 0.000000 -0.102885 -0.314992 5.121500 7.986189 6.138157 -6.298738 -8.407578 22.906487 -35.971437 -1.157395 -44.959232 -5.853561 0.000000 0.000000 0.000000 -4.273070 0.567301 4.553094 6.058511 -12.190808 -8.144388 23.745793 -27.507228 -37.137296 -3.446443 40.183864 -5.820059 0.000000 0.000000 0.000000 
-1.384136 36.209118 5.756384 179.870245 -1.952441 179.297110 -4.193165 -0.903834 12.767195 -1.554923 -8.324153 -14.396468 6.843437 7.405746 15.616056 5.288382 1.113649 5.605873 0.000000 0.000000 0.000000 0.448161 -0.156289 13.471438 -3.799021 -0.772184 -7.027802 -8.185173 -4.209052 14.157254 5.167615 3.375469 9.533291 0.000000 0.000000 0.000000 -0.937941 1.659771 0.769031 -1.909945 0.503165 -12.339814 -1.399525 -3.200618 5.878395 0.010063 -0.010498 -0.141067 -1.803598 -0.958862 7.875352 0.629463 2.693397 10.442960 0.000000 0.000000 0.000000 -0.059696 -0.257446 5.016697 7.999009 6.173174 -6.387765 -8.474424 22.878770 -36.046026 -1.037288 -44.988100 -5.983151 0.000000 0.000000 0.000000 -4.195376 0.614087 4.531397 6.041364 -12.183899 -8.270271 23.808043 -27.511117 -37.228540 -3.476526 40.221942 -5.866202 0.000000 0.000000 0.000000 
-1.385642 36.209145 5.747840 179.966387 -1.976145 179.305593 -4.113159 -0.922407 12.736617 -1.541809 -8.337006 -14.371684 6.846965 7.380967 15.640462 5.310128 1.117456 5.610848 0.000000 0.000000 0.000000 0.492281 -0.175427 13.426712 -3.650448 -0.799501 -6.976295 -8.452290 -4.037149 14.139941 5.394132 3.497903 9.584536 0.000000 0.000000 0.000000 -0.861847 1.717375 0.727071 -1.858938 0.531166 -12.327066 -1.367281 -3.194817 5.894983 -0.002196 -0.002538 -0.114830 -1.870649 -0.913740 7.926903 0.564434 2.626452 10.469229 0.000000 0.000000 0.000000 -0.118171 -0.299717 5.045550 7.996212 6.125069 -6.397883 -8.504103 22.791085 -36.199279 -1.078559 -45.066756 -5.947392 0.000000 0.000000 0.000000 -4.231803 0.607534 4.587848 6.063413 -12.247292 -8.176365 23.806170 -27.609327 -37.248341 -3.512713 40.135380 -5.879908 0.000000 0.000000 0.000000 
-1.384948 36.207584 5.743113 179.986631 -1.964381 179.315169 -4.089854 -0.974762 12.711598 -1.568860 -8.360416 -14.351464 6.875624 7.361317 15.691660 5.320056 1.115170 5.640088 0.000000 0.000000 0.000000 0.499314 -0.235631 13.362124 -3.686347 -0.786438 -6.937690 -8.406248 -4.023847 14.128089 5.414834 3.470215 9.554350 0.000000 0.000000 0.000000 -0.851888 1.693292 0.698831 -1.869175 0.549804 -12.284196 -1.356450 -3.174547 5.916461 -0.005412 0.010111 -0.071704 -1.847389 -0.919638 7.892506 0.551659 2.630547 10.458165 0.000000 0.000000 0.000000 -0.103370 -0.293794 5.043109 8.023926 6.148459 -6.736444 -8.488695 22.782195 -36.137028 -1.213737 -44.970816 -5.793465 0.000000 0.000000 0.000000 -4.240277 0.535676 4.396906 6.058220 -12.280485 -8.177342 23.780897 -27.565438 -37.201674 -3.454285 40.255707 -5.782579 0.000000 0.000000 0.000000 
-1.381180 36.204002 5.740549 179.905762 -1.972200 179.285417 -4.148151 -0.946571 12.725003 -1.620380 -8.397129 -14.349620 6.917433 7.343858 15.709836 5.344810 1.126241 5.641487 0.000000 0.000000 0.000000 0.481709 -0.229615 13.346497 -3.772347 -0.905145 -6.860992 -8.235610 -4.132090 14.188558 5.293699 3.356032 9.556354 0.000000 0.000000 0.000000 -0.880723 1.658784 0.739679 -1.925475 0.558652 -12.277593 -1.369097 -3.156290 5.866464 0.000310 0.013329 -0.032587 -1.829220 -0.966345 7.892330 0.540180 2.628579 10.488891 0.000000 0.000000 0.000000 -0.042883 -0.285027 5.139703 8.091875 6.171008 -6.604487 -8.549737 22.749461 -36.140928 -1.293525 -44.904648 -5.711892 0.000000 0.000000 0.000000 -4.176348 0.586034 4.480351 6.144486 -12.263081 -8.177309 23.710606 -27.550504 -37.105163 -3.510729 40.248006 -5.789216 0.000000 0.000000 0.000000 
-1.378236 36.200542 5.735042 179.901828 -2.037356 179.318571 -4.101666 -0.980330 12.719220 -1.659875 -8.424119 -14.387797 6.970135 7.282199 15.732174 5.349951 1.114740 5.655305 0.000000 0.000000 0.000000 0.487564 -0.281476 13.321913 -3.818597 -1.013255 -6.872124 -8.196224 -4.224592 14.210518 5.317437 3.363152 9.502181 0.000000 0.000000 0.000000 -0.884934 1.617396 0.643468 -1.954826 0.523661 -12.159403 -1.373226 -3.171461 5.911982 0.009091 -0.006356 -0.114126 -1.791143 -1.015978 7.915172 0.587841 2.712713 10.415282 0.000000 0.000000 0.000000 -0.061901 -0.293470 5.043462 8.142584 6.190646 -6.543876 -8.661469 22.827020 -36.238433 -1.276153 -44.989951 -5.730145 0.000000 0.000000 0.000000 -4.168391 0.594353 4.481674 6.172570 -12.258820 -8.309629 23.728432 -27.552394 -37.273435 -3.396561 40.277933 -5.654317 0.000000 0.000000 0.000000 
-1.378447 36.196335 5.728670 179.854017 -2.048365 179.321016 -4.126942 -0.935906 12.745153 -1.720284 -8.444449 -14.423355 7.041062 7.240193 15.752288 5.357615 1.127662 5.660351 0.000000 0.000000 0.000000 0.424315 -0.254271 13.342699 -3.798762 -1.149687 -6.872036 -8.161907 -4.155521 14.235672 5.398986 3.345004 9.537005 0.000000 0.000000 0.000000 -0.921789 1.599018 0.646562 -2.009034 0.488500 -12.084664 -1.353889 -3.189570 5.922203 0.031224 -0.021007 -0.141270 -1.765419 -0.903455 7.873977 0.571071 2.697277 10.328911 0.000000 0.000000 0.000000 -0.024389 -0.261135 5.040838 8.153868 6.230042 -6.414345 -8.737457 22.803246 -36.178235 -1.302095 -44.847613 -5.691468 0.000000 0.000000 0.000000 -4.131181 0.608469 4.492945 6.255214 -12.227821 -8.409272 23.729844 -27.455400 -37.125104 -3.611400 40.349424 -5.845773 0.000000 0.000000 0.000000 
-1.382156 36.192200 5.722259 179.868688 -2.084540 179.308790 -4.091081 -0.925972 12.772591 -1.779084 -8.444931 -14.469314 7.113611 7.187217 15.802285 5.343463 1.128027 5.667866 0.000000 0.000000 0.000000 0.466100 -0.274966 13.368238 -3.883512 -1.252459 -6.889241 -8.063936 -4.163751 14.294756 5.405398 3.275388 9.531123 0.000000 0.000000 0.000000 -0.916370 1.602725 0.667529 -2.045272 0.471097 -12.006067 -1.328199 -3.165589 5.925836 0.008437 -0.020335 -0.075291 -1.741155 -0.965465 7.836186 0.580674 2.701725 10.351185 0.000000 0.000000 0.000000 0.017355 -0.260143 5.043270 8.213869 6.239122 -6.491356 -8.759408 22.776241 -36.219226 -1.496721 -44.750850 -5.478959 0.000000 0.000000 0.000000 -4.079319 0.581299 4.560274 6.413747 -12.226834 -8.338134 23.636619 -27.493480 -37.112840 -3.579278 40.395853 -5.745129 0.000000 0.000000 0.000000 
